<svg width="204" height="45" viewBox="0 0 204 45" fill="none" xmlns="http://www.w3.org/2000/svg">
<path d="M82.639 9.32441V35.0227H77.8979L70.1335 17.9134V35.0227H66.8353V11.7293C65.7817 12.2332 64.9686 12.9432 64.396 13.8594C63.8234 14.7756 63.5371 15.9208 63.5371 17.295C63.5371 18.0279 63.5829 18.6349 63.6745 19.1159C63.7661 19.574 63.8692 19.9519 63.9837 20.2496C64.1212 20.5474 64.2586 20.7993 64.396 21.0055C64.5334 21.1887 64.6594 21.3605 64.7739 21.5208C63.2623 21.5208 62.1285 21.1772 61.3727 20.4901C60.6168 19.7801 60.2389 18.6005 60.2389 16.9514C60.2389 16.0124 60.4222 15.0848 60.7886 14.1686C61.1551 13.2524 61.6933 12.4279 62.4034 11.695C63.1363 10.962 64.0524 10.378 65.1518 9.94282C66.2512 9.48474 67.5338 9.2557 68.9997 9.2557C69.2746 9.2557 69.6296 9.2786 70.0647 9.32441C70.4999 9.37022 70.9809 9.50764 71.5077 9.73668L79.5126 27.9454V9.32441H82.639ZM93.6595 32.3429C94.3467 32.3429 94.9536 32.2513 95.4804 32.0681C96.0072 31.8849 96.4767 31.6444 96.889 31.3466C97.3013 31.026 97.6792 30.6595 98.0227 30.2472C98.3663 29.812 98.6984 29.354 99.0191 28.873H100.187C99.8665 29.6746 99.4772 30.4534 99.0191 31.2092C98.5839 31.965 98.0342 32.6407 97.37 33.2362C96.7287 33.8317 95.9728 34.3127 95.1025 34.6791C94.2321 35.0456 93.2129 35.2288 92.0448 35.2288C91.0599 35.2288 90.1552 35.08 89.3307 34.7822C88.5061 34.4845 87.7847 34.0264 87.1662 33.408C86.5707 32.7667 86.1012 31.9536 85.7577 30.9687C85.437 29.9609 85.2767 28.7585 85.2767 27.3613C85.2767 26.3764 85.3797 25.3229 85.5859 24.2006C85.8149 23.0554 86.2043 22.0018 86.754 21.0398C87.3037 20.0778 88.0481 19.2762 88.9871 18.6349C89.9262 17.9936 91.1172 17.6729 92.5601 17.6729C93.6595 17.6729 94.507 17.8447 95.1025 18.1883C95.698 18.5318 96.1332 18.9326 96.408 19.3907C96.7058 19.8488 96.8775 20.2954 96.9234 20.7306C96.9921 21.1658 97.0264 21.475 97.0264 21.6582C97.0264 22.6889 96.8317 23.5936 96.4424 24.3723C96.0759 25.1511 95.572 25.8153 94.9307 26.365C94.3123 26.8918 93.5908 27.3041 92.7663 27.6018C91.9646 27.8767 91.1401 28.037 90.2926 28.0828C90.3155 29.6174 90.5675 30.7168 91.0485 31.381C91.5524 32.0223 92.4227 32.3429 93.6595 32.3429ZM94.381 21.6926C94.381 20.8909 94.2436 20.3298 93.9687 20.0091C93.6939 19.6656 93.3961 19.4938 93.0755 19.4938C92.6861 19.4938 92.3311 19.6885 92.0104 20.0778C91.6898 20.4443 91.4035 20.9482 91.1515 21.5895C90.9225 22.2079 90.7278 22.9408 90.5675 23.7883C90.4301 24.6357 90.3385 25.5175 90.2926 26.4337C90.8652 26.3879 91.4035 26.239 91.9074 25.9871C92.4113 25.7122 92.8464 25.3687 93.2129 24.9564C93.5794 24.5212 93.8657 24.0288 94.0718 23.4791C94.2779 22.9294 94.381 22.3339 94.381 21.6926ZM113.166 17.8447V29.5257C113.166 30.4877 113.292 31.129 113.544 31.4497C113.819 31.7474 114.289 31.8963 114.953 31.8963C115.617 31.8963 116.167 31.61 116.602 31.0374C117.06 30.4648 117.324 29.7433 117.392 28.873H118.835C118.652 30.2701 118.331 31.3924 117.873 32.2399C117.415 33.0644 116.9 33.7057 116.327 34.1638C115.755 34.599 115.171 34.8853 114.575 35.0227C113.98 35.1601 113.453 35.2288 112.995 35.2288C111.781 35.2288 110.853 34.954 110.212 34.4043C109.593 33.8317 109.158 33.053 108.906 32.0681C108.723 32.4575 108.506 32.8468 108.254 33.2362C108.002 33.6027 107.692 33.9348 107.326 34.2325C106.982 34.5303 106.57 34.7708 106.089 34.954C105.631 35.1372 105.093 35.2288 104.474 35.2288C103.742 35.2288 103.02 35.0914 102.31 34.8166C101.6 34.5417 100.947 34.0951 100.352 33.4767C99.7791 32.8583 99.3096 32.0452 98.9431 31.0374C98.5996 30.0067 98.4278 28.747 98.4278 27.2582C98.4278 26.2047 98.5423 25.1167 98.7713 23.9944C99.0233 22.8721 99.4012 21.8415 99.9051 20.9024C100.432 19.9633 101.108 19.196 101.932 18.6005C102.78 17.9821 103.799 17.6729 104.99 17.6729C105.265 17.6729 105.562 17.6958 105.883 17.7416C106.204 17.7645 106.513 17.8447 106.811 17.9821C107.108 18.0966 107.383 18.2799 107.635 18.5318C107.887 18.7609 108.082 19.0815 108.219 19.4938V17.8447H113.166ZM108.219 21.1429C108.196 21.0513 108.151 20.9367 108.082 20.7993C108.013 20.639 107.91 20.4901 107.773 20.3527C107.635 20.1924 107.463 20.0664 107.257 19.9748C107.051 19.8603 106.811 19.803 106.536 19.803C105.986 19.803 105.505 20.0435 105.093 20.5245C104.703 20.9825 104.383 21.5666 104.131 22.2766C103.902 22.9637 103.73 23.731 103.616 24.5785C103.501 25.403 103.444 26.1932 103.444 26.949C103.444 28.163 103.535 29.1135 103.719 29.8006C103.902 30.4648 104.119 30.9572 104.371 31.2779C104.646 31.5757 104.933 31.7589 105.23 31.8276C105.528 31.8734 105.78 31.8963 105.986 31.8963C106.238 31.8963 106.49 31.839 106.742 31.7245C107.017 31.5871 107.257 31.3924 107.463 31.1405C107.692 30.8885 107.876 30.5793 108.013 30.2129C108.151 29.8235 108.219 29.3769 108.219 28.873V21.1429ZM122.043 17.8447V19.9748C122.547 19.3793 123.108 18.8525 123.726 18.3944C124.345 17.9134 125.02 17.6729 125.753 17.6729C126.189 17.6729 126.578 17.7645 126.922 17.9478C127.288 18.131 127.597 18.3715 127.849 18.6692C128.124 18.967 128.33 19.2991 128.468 19.6656C128.628 20.0091 128.708 20.3641 128.708 20.7306C128.708 21.2345 128.548 21.704 128.227 22.1392C127.929 22.5515 127.425 22.7576 126.715 22.7576C126.189 22.7576 125.822 22.6431 125.616 22.4141C125.41 22.185 125.25 21.9445 125.135 21.6926C125.02 21.4177 124.895 21.1658 124.757 20.9367C124.643 20.7077 124.425 20.5932 124.104 20.5932C123.761 20.5932 123.417 20.7306 123.074 21.0055C122.753 21.2574 122.409 21.5781 122.043 21.9674V35.0227H117.096V17.8447H122.043ZM140.663 12.4852V23.9601C141.373 23.8914 141.992 23.628 142.518 23.1699C143.068 22.6889 143.526 22.0934 143.893 21.3834C144.282 20.6733 144.568 19.8946 144.751 19.0472C144.958 18.1768 145.061 17.3065 145.061 16.4361C145.061 15.8864 144.992 15.2909 144.855 14.6496C144.74 13.9854 144.477 13.3784 144.064 12.8287C143.675 12.2561 143.091 11.7866 142.312 11.4201C141.556 11.0308 140.537 10.8361 139.255 10.8361C138.224 10.8361 137.285 10.9735 136.437 11.2483C135.59 11.5232 134.857 11.9469 134.239 12.5195C133.62 13.0692 133.139 13.7907 132.796 14.6839C132.452 15.5543 132.28 16.585 132.28 17.776C132.28 18.3944 132.315 18.9097 132.383 19.322C132.475 19.7114 132.578 20.0435 132.693 20.3183C132.83 20.5932 132.967 20.8222 133.105 21.0055C133.242 21.1887 133.368 21.3605 133.483 21.5208C132.108 21.5208 131.021 21.2001 130.219 20.5588C129.417 19.9175 129.016 18.9097 129.016 17.5355C129.016 16.3674 129.291 15.2795 129.841 14.2717C130.414 13.2639 131.181 12.3935 132.143 11.6606C133.128 10.9048 134.261 10.3207 135.544 9.90846C136.85 9.47329 138.224 9.2557 139.667 9.2557C141.064 9.2557 142.335 9.43893 143.48 9.8054C144.626 10.1719 145.61 10.6987 146.435 11.3858C147.259 12.05 147.889 12.8631 148.325 13.825C148.783 14.7641 149.012 15.8177 149.012 16.9858C149.012 17.9249 148.84 18.8868 148.496 19.8717C148.153 20.8566 147.637 21.7498 146.95 22.5515C146.263 23.3302 145.404 23.9715 144.374 24.4754C143.366 24.9793 142.186 25.2312 140.835 25.2312H140.663V35.0227H135.716V13.1723L140.663 12.4852ZM155.627 17.8447V19.9748C156.131 19.3793 156.692 18.8525 157.311 18.3944C157.929 17.9134 158.605 17.6729 159.338 17.6729C159.773 17.6729 160.162 17.7645 160.506 17.9478C160.872 18.131 161.182 18.3715 161.433 18.6692C161.708 18.967 161.914 19.2991 162.052 19.6656C162.212 20.0091 162.292 20.3641 162.292 20.7306C162.292 21.2345 162.132 21.704 161.811 22.1392C161.514 22.5515 161.01 22.7576 160.3 22.7576C159.773 22.7576 159.406 22.6431 159.2 22.4141C158.994 22.185 158.834 21.9445 158.719 21.6926C158.605 21.4177 158.479 21.1658 158.341 20.9367C158.227 20.7077 158.009 20.5932 157.689 20.5932C157.345 20.5932 157.002 20.7306 156.658 21.0055C156.337 21.2574 155.994 21.5781 155.627 21.9674V35.0227H150.68V17.8447H155.627ZM171.43 32.3429C172.117 32.3429 172.724 32.2513 173.251 32.0681C173.778 31.8849 174.247 31.6444 174.66 31.3466C175.072 31.026 175.45 30.6595 175.793 30.2472C176.137 29.812 176.469 29.354 176.79 28.873H177.958C177.637 29.6746 177.248 30.4534 176.79 31.2092C176.355 31.965 175.805 32.6407 175.141 33.2362C174.499 33.8317 173.744 34.3127 172.873 34.6791C172.003 35.0456 170.984 35.2288 169.816 35.2288C168.831 35.2288 167.926 35.08 167.101 34.7822C166.277 34.4845 165.555 34.0264 164.937 33.408C164.341 32.7667 163.872 31.9536 163.528 30.9687C163.208 29.9609 163.047 28.7585 163.047 27.3613C163.047 26.3764 163.15 25.3229 163.357 24.2006C163.586 23.0554 163.975 22.0018 164.525 21.0398C165.074 20.0778 165.819 19.2762 166.758 18.6349C167.697 17.9936 168.888 17.6729 170.331 17.6729C171.43 17.6729 172.278 17.8447 172.873 18.1883C173.469 18.5318 173.904 18.9326 174.179 19.3907C174.476 19.8488 174.648 20.2954 174.694 20.7306C174.763 21.1658 174.797 21.475 174.797 21.6582C174.797 22.6889 174.602 23.5936 174.213 24.3723C173.847 25.1511 173.343 25.8153 172.701 26.365C172.083 26.8918 171.362 27.3041 170.537 27.6018C169.735 27.8767 168.911 28.037 168.063 28.0828C168.086 29.6174 168.338 30.7168 168.819 31.381C169.323 32.0223 170.193 32.3429 171.43 32.3429ZM172.152 21.6926C172.152 20.8909 172.014 20.3298 171.739 20.0091C171.465 19.6656 171.167 19.4938 170.846 19.4938C170.457 19.4938 170.102 19.6885 169.781 20.0778C169.461 20.4443 169.174 20.9482 168.922 21.5895C168.693 22.2079 168.499 22.9408 168.338 23.7883C168.201 24.6357 168.109 25.5175 168.063 26.4337C168.636 26.3879 169.174 26.239 169.678 25.9871C170.182 25.7122 170.617 25.3687 170.984 24.9564C171.35 24.5212 171.636 24.0288 171.843 23.4791C172.049 22.9294 172.152 22.3339 172.152 21.6926ZM191.349 28.873C190.639 29.9495 189.884 30.8313 189.082 31.5184C188.28 32.2055 187.536 32.7896 186.849 33.2705C186.253 33.9806 185.509 34.4845 184.616 34.7822C183.722 35.08 182.864 35.2288 182.039 35.2288C181.031 35.2288 180.149 35.0685 179.394 34.7479C178.638 34.4272 178.008 34.0264 177.504 33.5454C177 33.0415 176.622 32.4918 176.37 31.8963C176.118 31.2779 175.992 30.6938 175.992 30.1442C175.992 29.5257 176.107 28.999 176.336 28.5638C176.588 28.1286 176.897 27.8194 177.264 27.6362C177.928 25.9184 178.477 24.2235 178.913 22.5515C179.371 20.8566 179.691 19.1617 179.875 17.4668L184.822 16.7797C185.394 19.0014 185.875 20.8108 186.265 22.2079C186.654 23.5822 186.963 24.7388 187.192 25.6779C187.421 26.594 187.582 27.3957 187.673 28.0828C187.765 28.7699 187.811 29.5372 187.811 30.3846V30.5908C188.635 30.0182 189.334 29.4456 189.907 28.873H191.349ZM179.978 29.1822C179.978 29.5257 179.875 29.8464 179.668 30.1442C179.462 30.419 179.165 30.5564 178.775 30.5564C178.592 30.5564 178.397 30.5335 178.191 30.4877C178.008 30.419 177.859 30.293 177.745 30.1098C177.928 30.9114 178.214 31.5184 178.603 31.9307C179.016 32.32 179.6 32.5147 180.356 32.5147C181.02 32.5147 181.592 32.3429 182.073 31.9994C182.554 31.6329 182.795 31.0031 182.795 30.1098C182.795 29.4914 182.76 28.9417 182.692 28.4607C182.623 27.9568 182.509 27.3957 182.348 26.7773C182.211 26.1589 182.016 25.4259 181.764 24.5785C181.535 23.731 181.249 22.666 180.905 21.3834C180.676 22.4828 180.39 23.5478 180.046 24.5785C179.726 25.5863 179.382 26.6398 179.016 27.7392C179.268 27.8538 179.485 28.037 179.668 28.2889C179.875 28.518 179.978 28.8157 179.978 29.1822ZM197.94 16.7797C198.513 19.0014 198.994 20.8108 199.383 22.2079C199.773 23.5822 200.082 24.7388 200.311 25.6779C200.54 26.594 200.7 27.3957 200.792 28.0828C200.883 28.7699 200.929 29.5372 200.929 30.3846C200.929 31.2779 200.746 32.0337 200.379 32.6521C200.013 33.2705 199.543 33.7744 198.971 34.1638C198.421 34.5303 197.803 34.8051 197.116 34.9883C196.429 35.1487 195.776 35.2288 195.157 35.2288C194.15 35.2288 193.268 35.0685 192.512 34.7479C191.756 34.4272 191.126 34.0264 190.622 33.5454C190.118 33.0415 189.741 32.4918 189.489 31.8963C189.237 31.2779 189.111 30.6938 189.111 30.1442C189.111 29.5257 189.225 28.999 189.454 28.5638C189.706 28.1286 190.015 27.8194 190.382 27.6362C191.046 25.9184 191.596 24.2235 192.031 22.5515C192.489 20.8566 192.81 19.1617 192.993 17.4668L197.94 16.7797ZM193.096 29.1822C193.096 29.5257 192.993 29.8464 192.787 30.1442C192.581 30.419 192.283 30.5564 191.894 30.5564C191.71 30.5564 191.516 30.5335 191.31 30.4877C191.126 30.419 190.977 30.293 190.863 30.1098C191.046 30.9114 191.332 31.5184 191.722 31.9307C192.134 32.32 192.718 32.5147 193.474 32.5147C194.138 32.5147 194.711 32.3429 195.192 31.9994C195.673 31.6329 195.913 31.0031 195.913 30.1098C195.913 29.4914 195.879 28.9417 195.81 28.4607C195.741 27.9568 195.627 27.3957 195.467 26.7773C195.329 26.1589 195.134 25.4259 194.883 24.5785C194.653 23.731 194.367 22.666 194.024 21.3834C193.795 22.4828 193.508 23.5478 193.165 24.5785C192.844 25.5863 192.501 26.6398 192.134 27.7392C192.386 27.8538 192.604 28.037 192.787 28.2889C192.993 28.518 193.096 28.8157 193.096 29.1822Z" fill="url(#paint0_linear_50_14)"/>
<circle cx="22.5" cy="22.5" r="22.5" fill="url(#paint1_linear_50_14)"/>
<circle cx="22.5" cy="21.9478" r="19.4632" fill="url(#paint2_linear_50_14)"/>
<mask id="mask0_50_14" style="mask-type:alpha" maskUnits="userSpaceOnUse" x="1" y="1" width="43" height="43">
<circle cx="22.5" cy="22.4999" r="20.8436" fill="#95DAE9"/>
</mask>
<g mask="url(#mask0_50_14)">
<circle cx="22.5" cy="22.4999" r="19.8773" stroke="white" stroke-width="1.93252"/>
<path d="M35.6606 5.37481V41.9692H29.1049L16.8253 14.4256V41.9692H13.5474V8.26127C11.7536 8.88096 10.3511 9.87573 9.34003 11.2456C8.32895 12.5828 7.82342 14.344 7.82342 16.5293C7.82342 17.5403 7.90495 18.4046 8.06803 19.1222C8.23111 19.8071 8.4268 20.3942 8.65511 20.8834C8.88342 21.34 9.12803 21.7151 9.38895 22.0086C9.68249 22.3022 9.94341 22.5468 10.1717 22.7425C8.11695 22.7425 6.60034 22.2533 5.62188 21.2748C4.67603 20.2637 4.20311 18.6493 4.20311 16.4314C4.20311 15.0942 4.46403 13.7733 4.98588 12.4687C5.54034 11.1314 6.3068 9.94096 7.28526 8.89727C8.26372 7.82096 9.43788 6.95666 10.8077 6.30435C12.1776 5.61943 13.6942 5.27697 15.3576 5.27697C15.912 5.27697 16.4828 5.32589 17.0699 5.42374C17.6569 5.52158 18.2277 5.70097 18.7822 5.96189L32.3828 37.3705V5.37481H35.6606Z" fill="white"/>
</g>
<defs>
<linearGradient id="paint0_linear_50_14" x1="71.5" y1="10.5" x2="190.5" y2="35" gradientUnits="userSpaceOnUse">
<stop stop-color="#8E3C69"/>
<stop offset="0.64762" stop-color="#3B153D"/>
</linearGradient>
<linearGradient id="paint1_linear_50_14" x1="22.5" y1="4.40885e-07" x2="33.681" y2="43.4816" gradientUnits="userSpaceOnUse">
<stop offset="0.483796" stop-color="#8E3C69"/>
<stop offset="1" stop-color="#3B153D"/>
</linearGradient>
<linearGradient id="paint2_linear_50_14" x1="15.5982" y1="4.14106" x2="22.5" y2="41.411" gradientUnits="userSpaceOnUse">
<stop offset="0.0462877" stop-color="#8E3C69"/>
<stop offset="0.978657" stop-color="#3B153D"/>
</linearGradient>
</defs>
</svg>
